<?xml version="1.0" encoding="UTF-8"?>
<!DOCTYPE svg PUBLIC "-//W3C//DTD SVG 1.1//EN" "http://www.w3.org/Graphics/SVG/1.1/DTD/svg11.dtd">
<!-- Creator: CorelDRAW 2017 -->
<svg xmlns="http://www.w3.org/2000/svg" xml:space="preserve" width="15.4941mm" height="5.3964mm" version="1.1" style="shape-rendering:geometricPrecision; text-rendering:geometricPrecision; image-rendering:optimizeQuality; fill-rule:evenodd; clip-rule:evenodd"
viewBox="0 0 11 4"
 xmlns:xlink="http://www.w3.org/1999/xlink">
 <defs>
  <style type="text/css">
   <![CDATA[
    .fil0 {fill:#FEFEFE;fill-rule:nonzero}
   ]]>
  </style>
 </defs>
 <g id="Layer_x0020_1">
  <metadata id="CorelCorpID_0Corel-Layer"/>
  <g id="_3132519699968">
   <path class="fil0" d="M2 1c1,0 1,1 1,2 0,0 0,0 -1,1 1,0 1,0 1,-1 0,-1 0,-2 -1,-2 0,0 -1,0 -2,0 0,0 1,0 1,0z"/>
   <path class="fil0" d="M1 3c0,0 0,0 0,1 0,0 0,0 0,0 0,0 0,0 0,-1 0,0 0,-1 0,-1 0,0 0,0 0,-1 0,0 0,1 0,2z"/>
   <path class="fil0" d="M1 3c0,0 0,1 1,1 0,0 0,0 1,0 1,0 1,0 2,-1 0,0 -1,0 -1,0 -1,0 -2,-1 -2,-1 0,0 0,1 0,1z"/>
   <path class="fil0" d="M1 1c0,0 0,-1 0,-1 -1,0 -1,1 -1,2 0,1 0,1 1,2 0,0 0,0 0,0 0,-1 0,-1 0,-2z"/>
   <path class="fil0" d="M2 1c0,0 -1,1 1,2 1,-1 -1,-2 -1,-2z"/>
   <path class="fil0" d="M5 1l1 0 0 0 -1 0 0 1 0 0 0 0 0 0 0 1 1 0 0 0 -1 0 0 -2zm1 0l0 0 0 2 1 0 0 0 -1 0 0 -2zm1 0l0 0 0 2 0 0 0 -2zm0 0l0 0 0 0 0 0 0 0zm1 1l0 0 0 0 1 0 0 0 0 0 0 2 0 0 0 -2zm1 0l1 0 0 0 -1 0 0 1 0 0 0 0 0 0 0 1 0 0 0 -2zm1 0l0 0 0 2 0 0 0 0 0 0 0 0 0 0 0 0 0 -2zm0 1l0 -1 0 0 0 1 0 0zm1 -1l0 0 0 2 1 0 0 0 -1 0 0 -2z"/>
  </g>
 </g>
</svg>
